<svg width="56" height="74" viewBox="0 0 56 74" fill="none" xmlns="http://www.w3.org/2000/svg">
<path d="M54.5123 41.8617C48.8469 22.555 30.354 1.33626 29.5698 0.441761C29.323 0.161117 28.9678 0 28.5939 0H28.593C28.22 0 27.8647 0.160263 27.618 0.440907C26.6718 1.51515 4.40931 26.9427 0.920338 43.4574C-0.965318 52.3812 0.0495705 59.5966 3.93789 64.9C9.22773 72.1179 17.8421 73.0386 18.2058 73.0742C18.5763 73.1107 18.9341 72.9895 19.2063 72.7427C19.4776 72.4969 19.6328 72.1467 19.6328 71.7796V56.178C19.6328 55.4598 19.0511 54.8782 18.333 54.8782H15.2586L28.8211 42.256L41.3941 54.8298H38.7971C38.0789 54.8298 37.4973 55.4123 37.4973 56.1296V70.6332H34.9664V58.5596C34.9664 57.8415 34.384 57.2599 33.6667 57.2599H23.5982C22.8801 57.2599 22.2984 57.8423 22.2984 58.5596V71.7796C22.2984 72.4977 22.8801 73.0793 23.5982 73.0793C24.3164 73.0793 24.898 72.4969 24.898 71.7796V59.8594H32.3669V71.933C32.3669 72.6512 32.9485 73.2328 33.6667 73.2328H38.7971C39.5152 73.2328 40.0969 72.6503 40.0969 71.933V57.4286H44.5321C45.0577 57.4286 45.5325 57.1123 45.7335 56.6265C45.9344 56.1415 45.8234 55.5819 45.452 55.2097L29.7732 39.531C29.2772 39.0358 28.4802 39.0222 27.9681 39.4987L11.0684 55.2258C10.6776 55.5904 10.5487 56.1568 10.7446 56.6536C10.9404 57.1513 11.4203 57.4777 11.9545 57.4777H17.034V70.2331C14.5676 69.6802 9.44648 68.0176 6.03551 63.3636C2.60419 58.6826 1.73938 52.165 3.46479 43.995C4.84088 37.4808 9.77376 28.1992 17.7318 17.1532C22.3103 10.7976 26.6938 5.52556 28.5888 3.29821C30.248 5.27629 33.8269 9.67332 37.7457 15.2887C42.6735 22.3481 49.1504 32.8167 52.0187 42.5943C57.1331 60.0273 46.6695 65.7368 46.2125 65.9751C45.5766 66.304 45.3257 67.0858 45.6521 67.7234C45.9794 68.3618 46.7628 68.6145 47.4012 68.288C47.5369 68.2185 50.7554 66.538 53.221 62.3843C57.2653 55.5709 56.1555 47.4627 54.5123 41.8617Z" fill="#3AB449"/>
<path d="M15.364 26.0169C15.1758 26.2509 10.7168 31.8061 8.58021 36.7229C5.98405 42.6995 5.32697 49.4553 5.30068 49.7402C5.2337 50.455 5.75853 51.0883 6.47328 51.1553C6.51482 51.1596 6.55552 51.1612 6.59706 51.1612C7.2601 51.1612 7.82647 50.6568 7.89006 49.9827C7.89599 49.9174 8.53867 43.3456 10.9661 37.759C12.9611 33.1687 17.3455 27.7042 17.3896 27.6482C17.8398 27.0903 17.7524 26.2713 17.1937 25.8211C16.6349 25.3708 15.8151 25.4582 15.364 26.0169Z" fill="#3AB449"/>
</svg>
