<svg width="238" height="81" viewBox="0 0 238 81" fill="none" xmlns="http://www.w3.org/2000/svg">
<path d="M54.5123 41.8617C48.8469 22.555 30.354 1.33626 29.5698 0.441761C29.323 0.161117 28.9678 0 28.5939 0H28.593C28.22 0 27.8647 0.160263 27.618 0.440907C26.6718 1.51515 4.40931 26.9427 0.920338 43.4574C-0.965318 52.3812 0.0495705 59.5966 3.93789 64.9C9.22773 72.1179 17.8421 73.0386 18.2058 73.0742C18.5763 73.1107 18.9341 72.9895 19.2063 72.7427C19.4776 72.4969 19.6328 72.1467 19.6328 71.7796V56.178C19.6328 55.4598 19.0511 54.8782 18.333 54.8782H15.2586L28.8211 42.256L41.3941 54.8298H38.7971C38.0789 54.8298 37.4973 55.4123 37.4973 56.1296V70.6332H34.9664V58.5596C34.9664 57.8415 34.384 57.2599 33.6667 57.2599H23.5982C22.8801 57.2599 22.2984 57.8423 22.2984 58.5596V71.7796C22.2984 72.4977 22.8801 73.0793 23.5982 73.0793C24.3164 73.0793 24.898 72.4969 24.898 71.7796V59.8594H32.3669V71.933C32.3669 72.6512 32.9485 73.2328 33.6667 73.2328H38.7971C39.5152 73.2328 40.0969 72.6503 40.0969 71.933V57.4286H44.5321C45.0577 57.4286 45.5325 57.1123 45.7335 56.6265C45.9344 56.1415 45.8234 55.5819 45.452 55.2097L29.7732 39.531C29.2772 39.0358 28.4802 39.0222 27.9681 39.4987L11.0684 55.2258C10.6776 55.5904 10.5487 56.1568 10.7446 56.6536C10.9404 57.1513 11.4203 57.4777 11.9545 57.4777H17.034V70.2331C14.5676 69.6802 9.44648 68.0176 6.03551 63.3636C2.60419 58.6826 1.73938 52.165 3.46479 43.995C4.84088 37.4808 9.77376 28.1992 17.7318 17.1532C22.3103 10.7976 26.6938 5.52556 28.5888 3.29821C30.248 5.27629 33.8269 9.67332 37.7457 15.2887C42.6735 22.3481 49.1504 32.8167 52.0187 42.5943C57.1331 60.0273 46.6695 65.7368 46.2125 65.9751C45.5766 66.304 45.3257 67.0858 45.6521 67.7234C45.9794 68.3618 46.7628 68.6145 47.4012 68.288C47.5369 68.2185 50.7554 66.538 53.221 62.3843C57.2653 55.5709 56.1555 47.4627 54.5123 41.8617Z" fill="white"/>
<path d="M15.364 26.0169C15.1758 26.2509 10.7168 31.8061 8.58021 36.7229C5.98405 42.6995 5.32697 49.4553 5.30068 49.7402C5.2337 50.455 5.75853 51.0883 6.47328 51.1553C6.51482 51.1596 6.55552 51.1612 6.59706 51.1612C7.2601 51.1612 7.82647 50.6568 7.89006 49.9827C7.89599 49.9174 8.53867 43.3456 10.9661 37.759C12.9611 33.1687 17.3455 27.7042 17.3896 27.6482C17.8398 27.0903 17.7524 26.2713 17.1937 25.8211C16.6349 25.3708 15.8151 25.4582 15.364 26.0169Z" fill="white"/>
<path d="M71.8475 58.0697H73.2885C74.8896 58.0697 76.1305 57.616 77.0111 56.7087C77.8917 55.8014 78.332 54.5205 78.332 52.8661C78.332 51.2116 77.8917 49.944 77.0111 49.0634C76.1572 48.1561 74.9163 47.7025 73.2885 47.7025H71.8475V58.0697ZM74.4093 60.5514H71.8475V68.1566C72.7815 68.5569 73.9423 68.8104 75.3299 68.9172C75.3299 69.0773 75.3299 69.3575 75.3299 69.7578C75.3299 70.1313 75.2632 70.6117 75.1298 71.1988H62.7212C62.7212 70.9853 62.7212 70.6784 62.7212 70.2781C62.7212 69.8512 62.7879 69.3975 62.9213 68.9172C63.7486 68.7837 64.3757 68.5569 64.8026 68.2367C65.2296 67.8898 65.4431 67.3161 65.4431 66.5155V47.8626C64.7493 47.5691 63.8153 47.4223 62.6411 47.4223C62.6145 47.2355 62.6011 46.9687 62.6011 46.6217C62.6011 46.2748 62.6678 45.7945 62.8012 45.1807H74.3693C77.5181 45.1807 80.1066 45.9012 82.1346 47.3422C84.1627 48.7566 85.1767 50.6112 85.1767 52.9061C85.1767 55.201 84.1627 57.0556 82.1346 58.4699C80.1332 59.8576 77.5581 60.5514 74.4093 60.5514ZM96.2775 55.1877C94.5964 55.1877 93.5557 56.642 93.1554 59.5507L96.2775 59.3105L98.0788 59.2305C98.0521 56.5353 97.4517 55.1877 96.2775 55.1877ZM93.0353 61.7122V61.7922C93.0353 65.9284 94.583 67.9965 97.6785 67.9965C99.3063 67.9965 101.161 67.5963 103.242 66.7957L104.163 68.2367C101.895 70.5583 99.1462 71.7191 95.9173 71.7191C93.7024 71.7191 91.621 70.9719 89.673 69.4776C88.7123 68.7571 87.9251 67.7831 87.3113 66.5555C86.7243 65.328 86.4307 63.9537 86.4307 62.4327C86.4307 59.3372 87.4314 56.8688 89.4328 55.0276C91.4342 53.1596 93.8759 52.2256 96.7579 52.2256C98.6792 52.2256 100.36 52.7593 101.801 53.8267C103.456 55.0276 104.283 57.109 104.283 60.0711C104.07 60.7115 103.803 61.2585 103.483 61.7122H93.0353ZM112.65 68.9172C113.45 68.9172 114.091 68.7304 114.571 68.3568C115.078 67.9565 115.332 67.4495 115.332 66.8357C115.332 66.1953 114.918 65.5682 114.091 64.9544C113.264 64.314 112.343 63.7669 111.329 63.3133C110.342 62.833 109.434 62.1258 108.607 61.1918C107.78 60.2578 107.366 59.1771 107.366 57.9496C107.366 56.0549 108.033 54.6273 109.368 53.6666C110.728 52.706 112.623 52.2256 115.051 52.2256C116.599 52.2256 118.24 52.5058 119.975 53.0662C119.975 53.4398 119.975 54.0802 119.975 54.9875C119.975 55.8948 119.895 57.0156 119.735 58.3499C119.041 58.3499 118.387 58.2831 117.773 58.1497C117.827 57.8295 117.853 57.5226 117.853 57.2291C117.853 55.5746 116.986 54.7474 115.252 54.7474C114.638 54.7474 114.117 54.9208 113.691 55.2677C113.29 55.588 113.09 56.0816 113.09 56.7488C113.09 57.3892 113.517 58.003 114.371 58.59C115.252 59.1504 116.199 59.6441 117.213 60.0711C118.254 60.4713 119.201 61.1518 120.055 62.1125C120.936 63.0731 121.376 64.2339 121.376 65.5949C121.376 67.3561 120.589 68.8238 119.014 69.9979C117.466 71.1454 115.505 71.7191 113.13 71.7191C110.755 71.7191 108.714 71.4656 107.006 70.9586C106.979 70.3982 106.966 69.6644 106.966 68.7571C106.966 67.8231 107.033 66.6623 107.166 65.2747C107.7 65.2747 108.394 65.328 109.247 65.4348C109.247 65.5148 109.247 65.755 109.247 66.1553C109.247 66.5555 109.341 66.9958 109.528 67.4762C109.741 67.9565 110.075 68.3034 110.528 68.5169C111.142 68.7837 111.849 68.9172 112.65 68.9172ZM131.018 71.6391C129.364 71.6391 128.03 71.1454 127.016 70.158C126.028 69.144 125.535 67.663 125.535 65.715V55.8681C124.814 55.7614 123.987 55.708 123.053 55.708C123.026 55.4679 123.013 55.1743 123.013 54.8274C123.013 54.4805 123.053 54.1069 123.133 53.7066C123.693 53.4398 124.481 53.1729 125.495 52.9061L130.458 46.5417L131.739 46.9019V52.786C133.447 52.7326 135.021 52.5992 136.462 52.3857C136.462 53.72 136.329 54.8007 136.062 55.628H131.739L131.779 65.5949C131.779 66.3421 131.899 66.8624 132.139 67.156C132.406 67.4495 132.873 67.5963 133.54 67.5963C134.234 67.5963 135.048 67.276 135.982 66.6356L137.063 67.9965C135.328 70.4249 133.313 71.6391 131.018 71.6391ZM146.22 59.4706H151.904L148.982 49.6238L148.701 51.0248L146.22 59.4706ZM151.223 71.1988C151.223 70.2381 151.263 69.4776 151.343 68.9172C152.624 68.6236 153.651 68.2901 154.425 67.9165L152.744 62.2325H145.379L143.578 68.3968C144.192 68.7437 145.272 68.9172 146.82 68.9172C146.82 69.7177 146.767 70.4783 146.66 71.1988H137.694C137.694 71.0386 137.694 70.7718 137.694 70.3982C137.694 69.9979 137.734 69.5042 137.814 68.9172C138.614 68.677 139.215 68.3568 139.615 67.9565C140.042 67.5562 140.389 66.9958 140.656 66.2753L147.5 45.2208C149.128 44.9006 151.276 44.7138 153.945 44.6604L160.75 66.3954C161.07 67.3561 161.417 68.0099 161.79 68.3568C162.191 68.7037 162.844 68.8905 163.752 68.9172C163.752 69.3708 163.698 70.1313 163.592 71.1988H151.223ZM194.267 52.746C194.32 52.9328 194.347 53.1996 194.347 53.5465C194.347 53.8668 194.24 54.3204 194.026 54.9075C193.386 54.9608 192.892 55.0276 192.545 55.1076L185.981 71.4389H183.459L179.256 61.3119L174.653 71.4389H172.131L166.047 55.2277C165.593 55.0142 165.073 54.9075 164.486 54.9075C164.379 54.4005 164.326 53.9735 164.326 53.6266C164.326 53.2797 164.353 52.9861 164.406 52.746H174.533C174.666 53.253 174.733 53.9735 174.733 54.9075C173.826 54.9875 173.279 55.1743 173.092 55.4679C172.985 55.628 172.932 55.8281 172.932 56.0683C172.932 56.2818 172.999 56.562 173.132 56.9089L174.973 62.6729C175.16 63.1799 175.293 63.7403 175.374 64.354H175.494L179.857 53.5465H182.378L185.781 62.6729C185.941 63.0998 186.074 63.6469 186.181 64.314H186.261L188.863 56.7087C188.97 56.3885 189.023 56.1217 189.023 55.9082C189.023 55.668 188.93 55.4412 188.743 55.2277C188.583 55.0142 188.102 54.9075 187.302 54.9075C187.302 54.7207 187.302 54.4405 187.302 54.0669C187.302 53.6666 187.368 53.2263 187.502 52.746H194.267ZM202.056 65.9952C202.056 66.5822 202.203 67.0626 202.496 67.4361C202.817 67.7831 203.297 67.9565 203.937 67.9565C204.604 67.9565 205.205 67.6363 205.739 66.9958V62.5928L204.618 62.953C202.91 63.4867 202.056 64.5008 202.056 65.9952ZM215.185 69.1573C214.465 70.0113 213.757 70.6517 213.064 71.0787C212.397 71.5056 211.556 71.7191 210.542 71.7191C209.528 71.7191 208.581 71.519 207.7 71.1187C206.846 70.6917 206.259 70.118 205.939 69.3975C204.711 70.9452 203.163 71.7191 201.296 71.7191C199.454 71.7191 198.013 71.2388 196.973 70.2781C195.958 69.2908 195.451 68.0366 195.451 66.5155C195.451 63.7403 197.319 61.979 201.055 61.2319L205.739 60.3112V59.1104C205.739 57.3759 204.725 56.5086 202.696 56.5086C201.229 56.5086 199.694 56.7754 198.093 57.3091L196.812 55.4278C199.187 53.293 202.003 52.2256 205.258 52.2256C207.473 52.2256 209.128 52.8127 210.222 53.9868C211.342 55.161 211.903 56.8288 211.903 58.9903V66.0752C211.903 67.3828 212.316 68.0366 213.144 68.0366C213.277 68.0366 213.771 67.9565 214.625 67.7964L215.185 69.1573ZM219.579 80.7654H218.698C218.325 79.4311 218.138 78.2837 218.138 77.323C218.138 76.389 218.164 75.6685 218.218 75.1615H219.539C220.713 75.1615 221.634 75.0014 222.301 74.6812C222.968 74.3876 223.555 73.8539 224.062 73.0801L217.497 57.3492C217.204 56.602 216.87 56.0549 216.497 55.708C216.15 55.3611 215.563 55.1076 214.735 54.9475C214.602 54.3871 214.535 53.9335 214.535 53.5866C214.535 53.2397 214.549 52.9595 214.575 52.746H225.583C225.69 53.1463 225.743 53.8801 225.743 54.9475C224.729 54.9475 223.982 55.0142 223.502 55.1476L226.984 67.276C227.171 66.3421 227.451 65.4081 227.825 64.4741L230.666 57.5493C230.853 57.0423 230.947 56.6554 230.947 56.3885C230.947 56.095 230.907 55.8681 230.827 55.708C230.613 55.3344 230.079 55.0809 229.225 54.9475C229.092 54.3871 229.025 53.9335 229.025 53.5866C229.025 53.2397 229.039 52.9595 229.065 52.746H237.191C237.218 53.4932 237.058 54.227 236.711 54.9475C236.15 54.9742 235.55 55.0943 234.909 55.3078L225.823 74.9614C224.062 78.8307 221.98 80.7654 219.579 80.7654Z" fill="white"/>
</svg>
